<?xml version="1.0" encoding="utf-8"?>
<!-- Generator: Adobe Illustrator 26.2.1, SVG Export Plug-In . SVG Version: 6.00 Build 0)  -->
<svg version="1.1" id="Layer_1" xmlns="http://www.w3.org/2000/svg" xmlns:xlink="http://www.w3.org/1999/xlink" x="0px" y="0px"
	 viewBox="0 0 360 360" style="enable-background:new 0 0 360 360;" xml:space="preserve">
<style type="text/css">
	.st0{fill:none;stroke:#000000;stroke-miterlimit:10;}
	.st1{fill:url(#SVGID_1_);}
	.st2{fill:url(#SVGID_00000032632338544340323100000013305894331153052330_);}
	.st3{fill:url(#SVGID_00000038404852931445918700000011402146898290940071_);}
	.st4{fill:#F2F2F2;}
	.st5{fill:url(#SVGID_00000092434140471192416430000006377093102893537688_);}
	.st6{fill:url(#SVGID_00000041290761064429447290000003008019422403345068_);}
	.st7{fill:url(#SVGID_00000126298664436002777520000001479329134314882691_);}
	.st8{fill:url(#SVGID_00000114763370545448448120000008706339042297105071_);}
	.st9{fill:url(#SVGID_00000132084749405729115010000017007325031880279472_);}
	.st10{fill:url(#SVGID_00000022539254215549972870000001917376869500545460_);}
	.st11{fill:url(#SVGID_00000050640590500637120870000014797097580051411606_);}
	.st12{fill:url(#SVGID_00000115489977509052809420000000455450086313348752_);}
	.st13{fill:url(#SVGID_00000049905356328449871400000007131078829079324289_);}
	.st14{fill:url(#SVGID_00000129165986881583354560000014122363352580894860_);}
	.st15{fill:url(#SVGID_00000173127104951204148880000008063763227716088493_);}
	.st16{fill:url(#SVGID_00000158736184777758588960000013271684955085979524_);}
	.st17{fill:url(#SVGID_00000142899069499193513120000011276093078807760529_);}
	.st18{fill:#FFFFFF;}
	.st19{fill:url(#SVGID_00000034774360358501768050000018423518150191551908_);}
	.st20{fill:url(#SVGID_00000017488062140968130300000012158936246103675802_);}
	.st21{fill:url(#SVGID_00000101073492223843455360000012451649011775005061_);}
	.st22{fill:url(#SVGID_00000144332589624143736090000017138479175190203318_);}
	.st23{fill:url(#SVGID_00000103987487017177368030000016700211656727514508_);}
	.st24{stroke:#000000;stroke-width:0.5;stroke-miterlimit:10;}
	.st25{fill:url(#SVGID_00000057115254456621364910000010353015180131593377_);}
	.st26{fill:url(#SVGID_00000085972013689371868830000016620375875010594188_);}
	.st27{fill:url(#SVGID_00000171694731740694217790000013833439934757829509_);}
	.st28{fill:#8C6239;}
	.st29{fill:url(#SVGID_00000072241811506091540250000002397336602250768035_);}
	.st30{fill:url(#SVGID_00000054260654333888616550000010719809629586786491_);}
	.st31{fill:url(#SVGID_00000180338147914517236460000011600507700807443858_);}
	.st32{fill:#608A5C;}
	.st33{fill:#97ADED;}
	.st34{stroke:#000000;stroke-miterlimit:10;}
	.st35{fill:url(#SVGID_00000029763036572107315510000011522639280424972722_);}
	.st36{fill:url(#SVGID_00000074441150430101691650000017671551802336833935_);}
</style>
<g>
	<g>
		<path d="M145.36,193.49l-10.3-34.16h8.49l5.17,17.96c0.29,1.04,0.54,2.11,0.73,3.2s0.36,2.1,0.49,3.03
			c0.13,0.93,0.21,1.65,0.24,2.17l-1.12,0.05c0.23-1.24,0.41-2.33,0.54-3.27s0.29-1.83,0.49-2.66c0.2-0.83,0.44-1.67,0.73-2.51
			l5.12-13.52h6.69l5.03,13.52c0.39,1.07,0.71,2.09,0.95,3.05c0.24,0.96,0.44,1.85,0.59,2.68c0.15,0.83,0.27,1.65,0.37,2.46
			l-1.03,0.2c0.07-0.62,0.12-1.17,0.17-1.66s0.09-0.97,0.12-1.44s0.08-0.96,0.15-1.46c0.06-0.5,0.16-1.07,0.29-1.71
			c0.13-0.63,0.31-1.36,0.54-2.17l5.08-17.91h8.35l-10.3,34.16h-6.34l-8.15-19.62l0.93,0.1l-7.47,19.52H145.36z"/>
		<path d="M188.26,193.49v-34.16h15.47c2.21,0,4.2,0.47,5.95,1.42c1.76,0.94,3.15,2.24,4.17,3.88c1.03,1.64,1.54,3.52,1.54,5.64
			c0,2.15-0.51,4.07-1.54,5.76c-1.02,1.69-2.42,3.03-4.17,4.03c-1.76,0.99-3.74,1.49-5.95,1.49h-7.52v11.96H188.26z M196.21,175.04
			h6.78c0.85,0,1.59-0.19,2.22-0.56s1.12-0.89,1.46-1.54c0.34-0.65,0.51-1.4,0.51-2.25c0-0.88-0.2-1.64-0.61-2.29
			c-0.41-0.65-0.98-1.16-1.71-1.54s-1.6-0.56-2.61-0.56h-6.05V175.04z M207.24,193.49l-8.69-15.47l8.54-1.22l9.66,16.74
			L207.24,193.49z"/>
		<path d="M223.1,193.49v-34.16h8.34v26.79h15.23v7.37H223.1z"/>
		<path d="M253.36,193.49v-34.16h14.4c2.5,0,4.8,0.42,6.88,1.24c2.08,0.83,3.87,2,5.37,3.51c1.5,1.51,2.65,3.32,3.46,5.42
			c0.81,2.1,1.22,4.4,1.22,6.91c0,2.54-0.41,4.85-1.22,6.93c-0.81,2.08-1.97,3.88-3.46,5.39c-1.5,1.51-3.28,2.68-5.34,3.51
			c-2.07,0.83-4.37,1.24-6.91,1.24H253.36z M261.7,187.73l-1.07-1.61h6.88c1.33,0,2.54-0.23,3.61-0.68
			c1.07-0.46,1.99-1.11,2.76-1.98c0.76-0.86,1.35-1.89,1.76-3.07c0.41-1.19,0.61-2.51,0.61-3.98s-0.2-2.79-0.61-3.98
			c-0.41-1.19-0.99-2.21-1.76-3.07c-0.76-0.86-1.68-1.52-2.76-1.98c-1.07-0.46-2.28-0.68-3.61-0.68h-7.03l1.22-1.51V187.73z"/>
	</g>
</g>
<linearGradient id="SVGID_1_" gradientUnits="userSpaceOnUse" x1="39.414" y1="161.1682" x2="108.4999" y2="191.0644">
	<stop  offset="1.345599e-03" style="stop-color:#608A5C"/>
	<stop  offset="1" style="stop-color:#97ADED"/>
</linearGradient>
<path class="st1" d="M59.01,210.66c-19.08-8.26-27.85-30.41-19.59-49.49c8.26-19.08,30.41-27.85,49.49-19.59
	c-8.91-3.86-22.82,8.48-31.08,27.56C49.57,188.21,50.1,206.8,59.01,210.66z M88.91,141.57c8.91,3.86,9.44,22.45,1.18,41.52
	c-8.26,19.08-22.17,31.42-31.08,27.56c19.08,8.26,41.24-0.52,49.49-19.59C116.76,171.99,107.98,149.83,88.91,141.57z"/>
</svg>
